<svg xmlns="http://www.w3.org/2000/svg" xmlns:xlink="http://www.w3.org/1999/xlink" contentStyleType="text/css" height="377px" preserveAspectRatio="none" style="width:1041px;height:377px;background:#FFFFFF;" version="1.1" viewBox="0 0 1041 377" width="1041px" zoomAndPan="magnify"><defs/><g><!--cluster Character Builder application--><g id="cluster_Character Builder application"><rect fill="none" height="364" rx="2.5" ry="2.5" style="stroke:#181818;stroke-width:1.0;" width="845" x="190" y="7"/><rect fill="none" height="10" style="stroke:#181818;stroke-width:1.0;" width="15" x="1015" y="12"/><rect fill="none" height="2" style="stroke:#181818;stroke-width:1.0;" width="4" x="1013" y="14"/><rect fill="none" height="2" style="stroke:#181818;stroke-width:1.0;" width="4" x="1013" y="18"/><text fill="#000000" font-family="sans-serif" font-size="14" font-weight="bold" lengthAdjust="spacing" textLength="195.2686" x="514.8657" y="35.1074">Character Builder application</text></g><!--cluster Application management--><g id="cluster_Application management"><rect fill="none" height="120" rx="2.5" ry="2.5" style="stroke:#181818;stroke-width:1.0;" width="471" x="540" y="52"/><rect fill="none" height="10" style="stroke:#181818;stroke-width:1.0;" width="15" x="991" y="57"/><rect fill="none" height="2" style="stroke:#181818;stroke-width:1.0;" width="4" x="989" y="59"/><rect fill="none" height="2" style="stroke:#181818;stroke-width:1.0;" width="4" x="989" y="63"/><text fill="#000000" font-family="sans-serif" font-size="14" font-weight="bold" lengthAdjust="spacing" textLength="166.4688" x="692.2656" y="80.1074">Application management</text></g><!--cluster User Management--><g id="cluster_User Management"><rect fill="none" height="120" rx="2.5" ry="2.5" style="stroke:#181818;stroke-width:1.0;" width="449" x="214" y="227"/><rect fill="none" height="10" style="stroke:#181818;stroke-width:1.0;" width="15" x="643" y="232"/><rect fill="none" height="2" style="stroke:#181818;stroke-width:1.0;" width="4" x="641" y="234"/><rect fill="none" height="2" style="stroke:#181818;stroke-width:1.0;" width="4" x="641" y="238"/><text fill="#000000" font-family="sans-serif" font-size="14" font-weight="bold" lengthAdjust="spacing" textLength="120.5928" x="378.2036" y="255.1074">User Management</text></g><!--entity Frontend--><g id="elem_Frontend"><rect fill="#F1F1F1" height="67.2422" rx="2.5" ry="2.5" style="stroke:#181818;stroke-width:0.5;" width="202.6748" x="206.5" y="89"/><rect fill="#F1F1F1" height="10" style="stroke:#181818;stroke-width:0.5;" width="15" x="389.1748" y="94"/><rect fill="#F1F1F1" height="2" style="stroke:#181818;stroke-width:0.5;" width="4" x="387.1748" y="96"/><rect fill="#F1F1F1" height="2" style="stroke:#181818;stroke-width:0.5;" width="4" x="387.1748" y="100"/><text fill="#000000" font-family="sans-serif" font-size="14" lengthAdjust="spacing" textLength="56.0342" x="221.5" y="124.1074">Frontend</text><text fill="#000000" font-family="sans-serif" font-size="14" lengthAdjust="spacing" textLength="162.6748" x="221.5" y="142.7285">&#171;Container&#187; Apache httpd</text></g><!--entity SpringBootBackend--><g id="elem_SpringBootBackend"><rect fill="#F1F1F1" height="67.2422" rx="2.5" ry="2.5" style="stroke:#181818;stroke-width:0.5;" width="226.7852" x="556.5" y="89"/><rect fill="#F1F1F1" height="10" style="stroke:#181818;stroke-width:0.5;" width="15" x="763.2852" y="94"/><rect fill="#F1F1F1" height="2" style="stroke:#181818;stroke-width:0.5;" width="4" x="761.2852" y="96"/><rect fill="#F1F1F1" height="2" style="stroke:#181818;stroke-width:0.5;" width="4" x="761.2852" y="100"/><text fill="#000000" font-family="sans-serif" font-size="14" lengthAdjust="spacing" textLength="63.793" x="571.5" y="124.1074">REST API</text><text fill="#000000" font-family="sans-serif" font-size="14" lengthAdjust="spacing" textLength="186.7852" x="571.5" y="142.7285">&#171;Container&#187; Java Spring Boot</text></g><!--entity NonUserDataDb--><g id="elem_NonUserDataDb"><path d="M819,108.5 C819,98.5 907.2134,98.5 907.2134,98.5 C907.2134,98.5 995.4268,98.5 995.4268,108.5 L995.4268,136.1211 C995.4268,146.1211 907.2134,146.1211 907.2134,146.1211 C907.2134,146.1211 819,146.1211 819,136.1211 L819,108.5 " fill="#F1F1F1" style="stroke:#181818;stroke-width:0.5;"/><path d="M819,108.5 C819,118.5 907.2134,118.5 907.2134,118.5 C907.2134,118.5 995.4268,118.5 995.4268,108.5 " fill="none" style="stroke:#181818;stroke-width:0.5;"/><text fill="#000000" font-family="sans-serif" font-size="14" lengthAdjust="spacing" textLength="156.4268" x="829" y="137.6074">&#171;Container&#187; PostgreSQL</text></g><!--entity UserDataDb--><g id="elem_UserDataDb"><path d="M471,283.5 C471,273.5 559.2134,273.5 559.2134,273.5 C559.2134,273.5 647.4268,273.5 647.4268,283.5 L647.4268,311.1211 C647.4268,321.1211 559.2134,321.1211 559.2134,321.1211 C559.2134,321.1211 471,321.1211 471,311.1211 L471,283.5 " fill="#F1F1F1" style="stroke:#181818;stroke-width:0.5;"/><path d="M471,283.5 C471,293.5 559.2134,293.5 559.2134,293.5 C559.2134,293.5 647.4268,293.5 647.4268,283.5 " fill="none" style="stroke:#181818;stroke-width:0.5;"/><text fill="#000000" font-family="sans-serif" font-size="14" lengthAdjust="spacing" textLength="156.4268" x="481" y="312.6074">&#171;Container&#187; PostgreSQL</text></g><!--entity AuthServer--><g id="elem_AuthServer"><rect fill="#F1F1F1" height="67.2422" rx="2.5" ry="2.5" style="stroke:#181818;stroke-width:0.5;" width="205.751" x="230" y="264"/><rect fill="#F1F1F1" height="10" style="stroke:#181818;stroke-width:0.5;" width="15" x="415.751" y="269"/><rect fill="#F1F1F1" height="2" style="stroke:#181818;stroke-width:0.5;" width="4" x="413.751" y="271"/><rect fill="#F1F1F1" height="2" style="stroke:#181818;stroke-width:0.5;" width="4" x="413.751" y="275"/><text fill="#000000" font-family="sans-serif" font-size="14" lengthAdjust="spacing" textLength="71.5859" x="245" y="299.1074">Auth server</text><text fill="#000000" font-family="sans-serif" font-size="14" lengthAdjust="spacing" textLength="165.751" x="245" y="317.7285">&#171;Container&#187; Keycloak IAM</text></g><!--entity User--><g id="elem_User"><ellipse cx="20.7793" cy="91.5" fill="#F1F1F1" rx="8" ry="8" style="stroke:#181818;stroke-width:0.5;"/><path d="M20.7793,99.5 L20.7793,126.5 M7.7793,107.5 L33.7793,107.5 M20.7793,126.5 L7.7793,141.5 M20.7793,126.5 L33.7793,141.5 " fill="none" style="stroke:#181818;stroke-width:0.5;"/><text fill="#000000" font-family="sans-serif" font-size="14" lengthAdjust="spacing" textLength="29.5586" x="6" y="158.1074">User</text></g><!--entity Interface_HTTPS--><g id="elem_Interface_HTTPS"><ellipse cx="162" cy="122.5" fill="#F1F1F1" rx="8" ry="8" style="stroke:#181818;stroke-width:0.5;"/><text fill="#000000" font-family="sans-serif" font-size="14" lengthAdjust="spacing" textLength="45.8896" x="139.0552" y="154.6074">HTTPS</text></g><!--link User to Interface_HTTPS--><g id="link_User_Interface_HTTPS"><path d="M42.09,122.5 C71.36,122.5 123.05,122.5 146.82,122.5 " fill="none" id="User-Interface_HTTPS" style="stroke:#181818;stroke-width:1.0;stroke-dasharray:7.0,7.0;"/><polygon fill="#181818" points="36.09,122.5,45.09,126.5,41.09,122.5,45.09,118.5,36.09,122.5" style="stroke:#181818;stroke-width:1.0;"/><polygon fill="#181818" points="152.82,122.5,143.82,118.5,147.82,122.5,143.82,126.5,152.82,122.5" style="stroke:#181818;stroke-width:1.0;"/><text fill="#000000" font-family="sans-serif" font-size="13" lengthAdjust="spacing" textLength="80.9326" x="54.5" y="115.5283">connects over</text></g><!--link Interface_HTTPS to Frontend--><g id="link_Interface_HTTPS_Frontend"><path d="M171.12,122.5 C182.89,122.5 194.65,122.5 206.41,122.5 " fill="none" id="Interface_HTTPS-Frontend" style="stroke:#181818;stroke-width:1.0;"/></g><!--link Frontend to SpringBootBackend--><g id="link_Frontend_SpringBootBackend"><path d="M415.8,122.5 C461.39,122.5 503.33,122.5 550.24,122.5 " fill="none" id="Frontend-SpringBootBackend" style="stroke:#181818;stroke-width:1.0;"/><polygon fill="#181818" points="409.8,122.5,418.8,126.5,414.8,122.5,418.8,118.5,409.8,122.5" style="stroke:#181818;stroke-width:1.0;"/><polygon fill="#181818" points="556.24,122.5,547.24,118.5,551.24,122.5,547.24,126.5,556.24,122.5" style="stroke:#181818;stroke-width:1.0;"/><text fill="#000000" font-family="sans-serif" font-size="13" lengthAdjust="spacing" textLength="110.5381" x="428" y="115.5283">communicates with</text></g><!--link Frontend to AuthServer--><g id="link_Frontend_AuthServer"><path d="M313.559,161.9782 C318.019,192.8082 322.9504,226.9919 327.4204,257.8719 " fill="none" id="Frontend-AuthServer" style="stroke:#181818;stroke-width:1.0;"/><polygon fill="#181818" points="312.7,156.04,310.0298,165.52,313.4159,160.9885,317.9474,164.3746,312.7,156.04" style="stroke:#181818;stroke-width:1.0;"/><polygon fill="#181818" points="328.28,263.81,330.9494,254.3298,327.5637,258.8616,323.0319,255.4759,328.28,263.81" style="stroke:#181818;stroke-width:1.0;"/><text fill="#000000" font-family="sans-serif" font-size="13" lengthAdjust="spacing" textLength="110.5381" x="321" y="207.0283">communicates with</text></g><!--link SpringBootBackend to NonUserDataDb--><g id="link_SpringBootBackend_NonUserDataDb"><path d="M783.87,122.5 C795.57,122.5 807.28,122.5 818.98,122.5 " fill="none" id="SpringBootBackend-NonUserDataDb" style="stroke:#181818;stroke-width:1.0;"/></g><!--link AuthServer to UserDataDb--><g id="link_AuthServer_UserDataDb"><path d="M436.29,297.5 C447.79,297.5 459.3,297.5 470.8,297.5 " fill="none" id="AuthServer-UserDataDb" style="stroke:#181818;stroke-width:1.0;"/></g><!--SRC=[ZL51JiCm4Bpx5QlSomDG52bjGGGe2YIS2a9RrpHMctNak4Mewj_n6aLfKWwSRC_EpkoEKJfZuRLL5h0Dfz3abFr4gU2kBFE2yQo3FW8a0Z- -IiQ5Qv26I4dNWZbuAI5DtHXIv22QLMXHUZfCztgtPiEcsMc9JXkAu2Z4yjOQhqVhDuhZcR-Y9cMJ1D86PQMWSgvPl_Cy7N5WaFPoK2FXHjKUZuvY-N9Jb93csLZt7Wy8HMCrRM1gZ0lQlsz-Jb5ksGHWZWvNs2g8XWAvQTt6gkBvCUBM9qES3BFdAt4QJ1SYM_HZ-OK1_gry9ijTotJlAl2O3tcyr8FwbZk3MyZIHLY8kKMWyaYZ7uD97sPtWNYINCR0VrlNU-A8LGjVsbNd7RwbD_gBUo7ehOU1zVs-T8QBqmy0]--></g></svg>