<svg xmlns="http://www.w3.org/2000/svg" xmlns:xlink="http://www.w3.org/1999/xlink" contentStyleType="text/css" height="486px" preserveAspectRatio="none" style="width:936px;height:486px;background:#FFFFFF;" version="1.1" viewBox="0 0 936 486" width="936px" zoomAndPan="magnify"><defs/><g><!--cluster Character Builder application--><g id="cluster_Character Builder application"><rect fill="none" height="473.34" rx="2.5" ry="2.5" style="stroke:#181818;stroke-width:1.0;" width="732" x="198.96" y="7"/><rect fill="none" height="10" style="stroke:#181818;stroke-width:1.0;" width="15" x="910.96" y="12"/><rect fill="none" height="2" style="stroke:#181818;stroke-width:1.0;" width="4" x="908.96" y="14"/><rect fill="none" height="2" style="stroke:#181818;stroke-width:1.0;" width="4" x="908.96" y="18"/><text fill="#000000" font-family="sans-serif" font-size="14" font-weight="bold" lengthAdjust="spacing" textLength="231.7451" x="449.0874" y="32.9951">Character Builder application</text></g><!--cluster Backend--><g id="cluster_Backend"><rect fill="none" height="281.89" rx="2.5" ry="2.5" style="stroke:#181818;stroke-width:1.0;" width="684" x="222.96" y="174.45"/><rect fill="none" height="10" style="stroke:#181818;stroke-width:1.0;" width="15" x="886.96" y="179.45"/><rect fill="none" height="2" style="stroke:#181818;stroke-width:1.0;" width="4" x="884.96" y="181.45"/><rect fill="none" height="2" style="stroke:#181818;stroke-width:1.0;" width="4" x="884.96" y="185.45"/><text fill="#000000" font-family="sans-serif" font-size="14" font-weight="bold" lengthAdjust="spacing" textLength="67.2109" x="531.3545" y="200.4451">Backend</text></g><!--cluster User Management--><g id="cluster_User Management"><rect fill="none" height="97.3" rx="2.5" ry="2.5" style="stroke:#181818;stroke-width:1.0;" width="620" x="246.96" y="335.04"/><rect fill="none" height="10" style="stroke:#181818;stroke-width:1.0;" width="15" x="846.96" y="340.04"/><rect fill="none" height="2" style="stroke:#181818;stroke-width:1.0;" width="4" x="844.96" y="342.04"/><rect fill="none" height="2" style="stroke:#181818;stroke-width:1.0;" width="4" x="844.96" y="346.04"/><text fill="#000000" font-family="sans-serif" font-size="14" font-weight="bold" lengthAdjust="spacing" textLength="144.0264" x="484.9468" y="361.0351">User Management</text></g><!--entity Frontend--><g id="elem_Frontend"><rect fill="#F1F1F1" height="62.5938" rx="2.5" ry="2.5" style="stroke:#181818;stroke-width:0.5;" width="224.2969" x="233.81" y="42"/><rect fill="#F1F1F1" height="10" style="stroke:#181818;stroke-width:0.5;" width="15" x="438.1069" y="47"/><rect fill="#F1F1F1" height="2" style="stroke:#181818;stroke-width:0.5;" width="4" x="436.1069" y="49"/><rect fill="#F1F1F1" height="2" style="stroke:#181818;stroke-width:0.5;" width="4" x="436.1069" y="53"/><text fill="#000000" font-family="sans-serif" font-size="14" lengthAdjust="spacing" textLength="63.1094" x="248.81" y="74.9951">Frontend</text><text fill="#000000" font-family="sans-serif" font-size="14" lengthAdjust="spacing" textLength="184.2969" x="248.81" y="91.292">&#171;Container&#187; Apache httpd</text></g><!--entity SpringBootBackend--><g id="elem_SpringBootBackend"><rect fill="#F1F1F1" height="62.5938" rx="2.5" ry="2.5" style="stroke:#181818;stroke-width:0.5;" width="245.8711" x="239.02" y="209.45"/><rect fill="#F1F1F1" height="10" style="stroke:#181818;stroke-width:0.5;" width="15" x="464.8911" y="214.45"/><rect fill="#F1F1F1" height="2" style="stroke:#181818;stroke-width:0.5;" width="4" x="462.8911" y="216.45"/><rect fill="#F1F1F1" height="2" style="stroke:#181818;stroke-width:0.5;" width="4" x="462.8911" y="220.45"/><text fill="#000000" font-family="sans-serif" font-size="14" lengthAdjust="spacing" textLength="62.6104" x="254.02" y="242.4451">REST API</text><text fill="#000000" font-family="sans-serif" font-size="14" lengthAdjust="spacing" textLength="205.8711" x="254.02" y="258.742">&#171;Container&#187; Java Spring Boot</text></g><!--entity NonUserDataDb--><g id="elem_NonUserDataDb"><path d="M519.58,228.1 C519.58,218.1 614.954,218.1 614.954,218.1 C614.954,218.1 710.328,218.1 710.328,228.1 L710.328,253.3969 C710.328,263.3969 614.954,263.3969 614.954,263.3969 C614.954,263.3969 519.58,263.3969 519.58,253.3969 L519.58,228.1 " fill="#F1F1F1" style="stroke:#181818;stroke-width:0.5;"/><path d="M519.58,228.1 C519.58,238.1 614.954,238.1 614.954,238.1 C614.954,238.1 710.328,238.1 710.328,228.1 " fill="none" style="stroke:#181818;stroke-width:0.5;"/><text fill="#000000" font-family="sans-serif" font-size="14" lengthAdjust="spacing" textLength="170.748" x="529.58" y="255.0951">&#171;Container&#187; PostgreSQL</text></g><g id="elem_GMN10"><path d="M745.45,228.18 L745.45,236.75 L710.51,240.75 L745.45,244.75 L745.45,253.3128 A0,0 0 0 0 745.45,253.3128 L890.4578,253.3128 A0,0 0 0 0 890.4578,253.3128 L890.4578,238.18 L880.4578,228.18 L745.45,228.18 A0,0 0 0 0 745.45,228.18 " fill="#FEFFDD" style="stroke:#181818;stroke-width:0.5;"/><path d="M880.4578,228.18 L880.4578,238.18 L890.4578,238.18 L880.4578,228.18 " fill="#FEFFDD" style="stroke:#181818;stroke-width:0.5;"/><text fill="#000000" font-family="sans-serif" font-size="13" lengthAdjust="spacing" textLength="124.0078" x="751.45" y="245.2469">Non-user data only</text></g><!--entity UserDataDb--><g id="elem_UserDataDb"><path d="M509.58,380.54 C509.58,370.54 604.954,370.54 604.954,370.54 C604.954,370.54 700.328,370.54 700.328,380.54 L700.328,405.8369 C700.328,415.8369 604.954,415.8369 604.954,415.8369 C604.954,415.8369 509.58,415.8369 509.58,405.8369 L509.58,380.54 " fill="#F1F1F1" style="stroke:#181818;stroke-width:0.5;"/><path d="M509.58,380.54 C509.58,390.54 604.954,390.54 604.954,390.54 C604.954,390.54 700.328,390.54 700.328,380.54 " fill="none" style="stroke:#181818;stroke-width:0.5;"/><text fill="#000000" font-family="sans-serif" font-size="14" lengthAdjust="spacing" textLength="170.748" x="519.58" y="407.5351">&#171;Container&#187; PostgreSQL</text></g><!--entity AuthServer--><g id="elem_AuthServer"><rect fill="#F1F1F1" height="46.2969" rx="2.5" ry="2.5" style="stroke:#181818;stroke-width:0.5;" width="211.5752" x="263.17" y="370.04"/><rect fill="#F1F1F1" height="10" style="stroke:#181818;stroke-width:0.5;" width="15" x="454.7452" y="375.04"/><rect fill="#F1F1F1" height="2" style="stroke:#181818;stroke-width:0.5;" width="4" x="452.7452" y="377.04"/><rect fill="#F1F1F1" height="2" style="stroke:#181818;stroke-width:0.5;" width="4" x="452.7452" y="381.04"/><text fill="#000000" font-family="sans-serif" font-size="14" lengthAdjust="spacing" textLength="171.5752" x="278.17" y="403.0351">&#171;Container&#187; Auth server</text></g><g id="elem_GMN16"><path d="M735.12,380.63 L735.12,389.19 L700.79,393.19 L735.12,397.19 L735.12,405.7628 A0,0 0 0 0 735.12,405.7628 L850.7953,405.7628 A0,0 0 0 0 850.7953,405.7628 L850.7953,390.63 L840.7953,380.63 L735.12,380.63 A0,0 0 0 0 735.12,380.63 " fill="#FEFFDD" style="stroke:#181818;stroke-width:0.5;"/><path d="M840.7953,380.63 L840.7953,390.63 L850.7953,390.63 L840.7953,380.63 " fill="#FEFFDD" style="stroke:#181818;stroke-width:0.5;"/><text fill="#000000" font-family="sans-serif" font-size="13" lengthAdjust="spacing" textLength="94.6753" x="741.12" y="397.6969">User data only</text></g><!--entity User--><g id="elem_User"><ellipse cx="21.9551" cy="43.65" fill="#F1F1F1" rx="8" ry="8" style="stroke:#181818;stroke-width:0.5;"/><path d="M21.9551,51.65 L21.9551,78.65 M8.9551,59.65 L34.9551,59.65 M21.9551,78.65 L8.9551,93.65 M21.9551,78.65 L34.9551,93.65 " fill="none" style="stroke:#181818;stroke-width:0.5;"/><text fill="#000000" font-family="sans-serif" font-size="14" lengthAdjust="spacing" textLength="31.9102" x="6" y="108.1451">User</text></g><!--entity Interface_HTTPS--><g id="elem_Interface_HTTPS"><ellipse cx="173.96" cy="73.3" fill="#F1F1F1" rx="8" ry="8" style="stroke:#181818;stroke-width:0.5;"/><text fill="#000000" font-family="sans-serif" font-size="14" lengthAdjust="spacing" textLength="44.96" x="151.48" y="103.2951">HTTPS</text></g><!--link User to Interface_HTTPS--><g id="link_User_Interface_HTTPS"><path d="M44.22,73.3 C76.08,73.3 133.77,73.3 158.79,73.3 " fill="none" id="User-Interface_HTTPS" style="stroke:#181818;stroke-width:1.0;stroke-dasharray:7.0,7.0;"/><polygon fill="#181818" points="38.22,73.3,47.22,77.3,43.22,73.3,47.22,69.3,38.22,73.3" style="stroke:#181818;stroke-width:1.0;"/><polygon fill="#181818" points="164.79,73.3,155.79,69.3,159.79,73.3,155.79,77.3,164.79,73.3" style="stroke:#181818;stroke-width:1.0;"/><text fill="#000000" font-family="sans-serif" font-size="13" lengthAdjust="spacing" textLength="91.7173" x="55.93" y="66.3669">connects over</text></g><!--link Interface_HTTPS to Frontend--><g id="link_Interface_HTTPS_Frontend"><path d="M183.36,73.3 C200.09,73.3 216.81,73.3 233.54,73.3 " fill="none" id="Interface_HTTPS-Frontend" style="stroke:#181818;stroke-width:1.0;"/></g><!--link Frontend to SpringBootBackend--><g id="link_Frontend_SpringBootBackend"><path d="M349.5067,111.0022 C352.3767,140.7222 355.5521,173.5479 358.4221,203.2079 " fill="none" id="Frontend-SpringBootBackend" style="stroke:#181818;stroke-width:1.0;"/><polygon fill="#181818" points="348.93,105.03,345.8136,114.3728,349.4106,110.0068,353.7766,113.6038,348.93,105.03" style="stroke:#181818;stroke-width:1.0;"/><polygon fill="#181818" points="359,209.18,362.1146,199.8366,358.5184,204.2032,354.1518,200.6071,359,209.18" style="stroke:#181818;stroke-width:1.0;"/><text fill="#000000" font-family="sans-serif" font-size="13" lengthAdjust="spacing" textLength="127.2134" x="354.96" y="154.5169">communicates with</text></g><!--link SpringBootBackend to NonUserDataDb--><g id="link_SpringBootBackend_NonUserDataDb"><path d="M485,240.75 C496.42,240.75 507.84,240.75 519.26,240.75 " fill="none" id="SpringBootBackend-NonUserDataDb" style="stroke:#181818;stroke-width:1.0;"/></g><!--link SpringBootBackend to AuthServer--><g id="link_SpringBootBackend_AuthServer"><path d="M363.6484,278.1835 C364.9884,307.0335 366.4203,337.7065 367.6303,363.6365 " fill="none" id="SpringBootBackend-AuthServer" style="stroke:#181818;stroke-width:1.0;"/><polygon fill="#181818" points="363.37,272.19,359.7919,281.3659,363.602,277.1846,367.7833,280.9947,363.37,272.19" style="stroke:#181818;stroke-width:1.0;"/><polygon fill="#181818" points="367.91,369.63,371.4861,360.4533,367.6769,364.6354,363.4948,360.8262,367.91,369.63" style="stroke:#181818;stroke-width:1.0;"/><text fill="#000000" font-family="sans-serif" font-size="13" lengthAdjust="spacing" textLength="127.2134" x="365.96" y="315.1069">communicates with</text></g><!--link AuthServer to UserDataDb--><g id="link_AuthServer_UserDataDb"><path d="M474.97,393.19 C486.4,393.19 497.82,393.19 509.24,393.19 " fill="none" id="AuthServer-UserDataDb" style="stroke:#181818;stroke-width:1.0;"/></g><!--SRC=[ZP91JiCm44NtFiKe-t0054LgMX15W0efguBGr74JYsOSEKuHGhqxOvUgJT85gtY-lvyzFuFI6GklhRA0RVWAJKxP3Ke5Tylb8lVw_2Xz14a4VtAL3ZUkGHeY9LqBPiSe8KtT65Ba89fMQ56o7R9ERmj_OTDijKId3KNm8rQtrZ2EYZTAaYalKPEoQGgJ1cMbe7AkATxzSux67Zz3-ScQ9m6iNcxo9KmMyo7h7dS8UMCrbP0PumBlKFlo3yA46JfSOwiWwWCMfdMbLVdpG-IFFXdoONZtRCt7o3W5LfUL0xCPxO9NuiwdLx06XhRVBFEDuI0lpneA8JyYOQbg5WwD_VjXWtjNWqWxLm4x-2U517oTXpAu-rqCK70Ob_C6UYtinLw8mM10VFffnmKaSPoEi_SpLDST-SbGBNnfLucHYNdzRCUEG3_rTGbxscNU6KpiVm40]--></g></svg>